<?xml version="1.0" encoding="utf-8" standalone="no"?>
<!DOCTYPE svg PUBLIC "-//W3C//DTD SVG 1.1//EN"
  "http://www.w3.org/Graphics/SVG/1.1/DTD/svg11.dtd">
<!-- Created with matplotlib (https://matplotlib.org/) -->
<svg height="648pt" version="1.1" viewBox="0 0 864 648" width="864pt" xmlns="http://www.w3.org/2000/svg" xmlns:xlink="http://www.w3.org/1999/xlink">
 <defs>
  <style type="text/css">
*{stroke-linecap:butt;stroke-linejoin:round;}
  </style>
 </defs>
 <g id="figure_1">
  <g id="patch_1">
   <path d="M 0 648 
L 864 648 
L 864 0 
L 0 0 
z
" style="fill:#f0f0f0;"/>
  </g>
  <g id="patch_2">
   <path d="M 69.12 567 
L 820.8 567 
L 820.8 77.76 
L 69.12 77.76 
z
" style="fill:#e5e5e5;"/>
  </g>
  <g id="pane3d_1">
   <g id="patch_3">
    <path d="M 526.467048 264.556817 
L 736.421934 439.503579 
L 760.104031 263.107101 
L 532.127425 84.450494 
" style="fill:#f2f2f2;opacity:0.5;stroke:#f2f2f2;stroke-linejoin:miter;stroke-width:0.5;"/>
   </g>
  </g>
  <g id="pane3d_2">
   <g id="patch_4">
    <path d="M 526.467048 264.556817 
L 180.366211 363.209635 
L 157.818743 184.998129 
L 532.127425 84.450494 
" style="fill:#e6e6e6;opacity:0.5;stroke:#e6e6e6;stroke-linejoin:miter;stroke-width:0.5;"/>
   </g>
  </g>
  <g id="pane3d_3">
   <g id="patch_5">
    <path d="M 526.467048 264.556817 
L 180.366211 363.209635 
L 377.204373 549.801831 
L 736.421934 439.503579 
" style="fill:#ececec;opacity:0.5;stroke:#ececec;stroke-linejoin:miter;stroke-width:0.5;"/>
   </g>
  </g>
  <g id="axis3d_1">
   <g id="line2d_1">
    <path d="M 736.421934 439.503579 
L 377.204373 549.801831 
" style="fill:none;stroke:#ffffff;"/>
   </g>
   <g id="text_1">
    <!-- step -->
    <defs>
     <path d="M 44.28125 53.078125 
L 44.28125 44.578125 
Q 40.484375 46.53125 36.375 47.5 
Q 32.28125 48.484375 27.875 48.484375 
Q 21.1875 48.484375 17.84375 46.4375 
Q 14.5 44.390625 14.5 40.28125 
Q 14.5 37.15625 16.890625 35.375 
Q 19.28125 33.59375 26.515625 31.984375 
L 29.59375 31.296875 
Q 39.15625 29.25 43.1875 25.515625 
Q 47.21875 21.78125 47.21875 15.09375 
Q 47.21875 7.46875 41.1875 3.015625 
Q 35.15625 -1.421875 24.609375 -1.421875 
Q 20.21875 -1.421875 15.453125 -0.5625 
Q 10.6875 0.296875 5.421875 2 
L 5.421875 11.28125 
Q 10.40625 8.6875 15.234375 7.390625 
Q 20.0625 6.109375 24.8125 6.109375 
Q 31.15625 6.109375 34.5625 8.28125 
Q 37.984375 10.453125 37.984375 14.40625 
Q 37.984375 18.0625 35.515625 20.015625 
Q 33.0625 21.96875 24.703125 23.78125 
L 21.578125 24.515625 
Q 13.234375 26.265625 9.515625 29.90625 
Q 5.8125 33.546875 5.8125 39.890625 
Q 5.8125 47.609375 11.28125 51.796875 
Q 16.75 56 26.8125 56 
Q 31.78125 56 36.171875 55.265625 
Q 40.578125 54.546875 44.28125 53.078125 
z
" id="DejaVuSans-115"/>
     <path d="M 18.3125 70.21875 
L 18.3125 54.6875 
L 36.8125 54.6875 
L 36.8125 47.703125 
L 18.3125 47.703125 
L 18.3125 18.015625 
Q 18.3125 11.328125 20.140625 9.421875 
Q 21.96875 7.515625 27.59375 7.515625 
L 36.8125 7.515625 
L 36.8125 0 
L 27.59375 0 
Q 17.1875 0 13.234375 3.875 
Q 9.28125 7.765625 9.28125 18.015625 
L 9.28125 47.703125 
L 2.6875 47.703125 
L 2.6875 54.6875 
L 9.28125 54.6875 
L 9.28125 70.21875 
z
" id="DejaVuSans-116"/>
     <path d="M 56.203125 29.59375 
L 56.203125 25.203125 
L 14.890625 25.203125 
Q 15.484375 15.921875 20.484375 11.0625 
Q 25.484375 6.203125 34.421875 6.203125 
Q 39.59375 6.203125 44.453125 7.46875 
Q 49.3125 8.734375 54.109375 11.28125 
L 54.109375 2.78125 
Q 49.265625 0.734375 44.1875 -0.34375 
Q 39.109375 -1.421875 33.890625 -1.421875 
Q 20.796875 -1.421875 13.15625 6.1875 
Q 5.515625 13.8125 5.515625 26.8125 
Q 5.515625 40.234375 12.765625 48.109375 
Q 20.015625 56 32.328125 56 
Q 43.359375 56 49.78125 48.890625 
Q 56.203125 41.796875 56.203125 29.59375 
z
M 47.21875 32.234375 
Q 47.125 39.59375 43.09375 43.984375 
Q 39.0625 48.390625 32.421875 48.390625 
Q 24.90625 48.390625 20.390625 44.140625 
Q 15.875 39.890625 15.1875 32.171875 
z
" id="DejaVuSans-101"/>
     <path d="M 18.109375 8.203125 
L 18.109375 -20.796875 
L 9.078125 -20.796875 
L 9.078125 54.6875 
L 18.109375 54.6875 
L 18.109375 46.390625 
Q 20.953125 51.265625 25.265625 53.625 
Q 29.59375 56 35.59375 56 
Q 45.5625 56 51.78125 48.09375 
Q 58.015625 40.1875 58.015625 27.296875 
Q 58.015625 14.40625 51.78125 6.484375 
Q 45.5625 -1.421875 35.59375 -1.421875 
Q 29.59375 -1.421875 25.265625 0.953125 
Q 20.953125 3.328125 18.109375 8.203125 
z
M 48.6875 27.296875 
Q 48.6875 37.203125 44.609375 42.84375 
Q 40.53125 48.484375 33.40625 48.484375 
Q 26.265625 48.484375 22.1875 42.84375 
Q 18.109375 37.203125 18.109375 27.296875 
Q 18.109375 17.390625 22.1875 11.75 
Q 26.265625 6.109375 33.40625 6.109375 
Q 40.53125 6.109375 44.609375 11.75 
Q 48.6875 17.390625 48.6875 27.296875 
z
" id="DejaVuSans-112"/>
    </defs>
    <g style="fill:#555555;" transform="translate(562.801957 524.244676)scale(0.12 -0.12)">
     <use xlink:href="#DejaVuSans-115"/>
     <use x="52.099609" xlink:href="#DejaVuSans-116"/>
     <use x="91.308594" xlink:href="#DejaVuSans-101"/>
     <use x="152.832031" xlink:href="#DejaVuSans-112"/>
    </g>
   </g>
   <g id="Line3DCollection_1">
    <path d="M 705.552963 448.981939 
L 496.676357 273.048376 
L 499.983085 93.085179 
" style="fill:none;stroke:#ffffff;"/>
    <path d="M 657.401776 463.766828 
L 450.225512 286.288756 
L 449.834449 106.556218 
" style="fill:none;stroke:#ffffff;"/>
    <path d="M 608.815179 478.685411 
L 403.377322 299.642396 
L 399.222389 120.151743 
" style="fill:none;stroke:#ffffff;"/>
    <path d="M 559.787239 493.739508 
L 356.126667 313.110755 
L 348.14045 133.873487 
" style="fill:none;stroke:#ffffff;"/>
    <path d="M 510.311917 508.930974 
L 308.468338 326.695318 
L 296.582058 147.723218 
" style="fill:none;stroke:#ffffff;"/>
    <path d="M 460.383059 524.2617 
L 260.397035 340.397595 
L 244.540517 161.702733 
" style="fill:none;stroke:#ffffff;"/>
    <path d="M 409.994402 539.733607 
L 211.907368 354.219123 
L 192.009004 175.813865 
" style="fill:none;stroke:#ffffff;"/>
   </g>
   <g id="xtick_1">
    <g id="line2d_2">
     <path clip-path="url(#p6378cc4d4c)" d="M 455.117838 315.768649 
" style="fill:none;stroke:#ffffff;"/>
    </g>
    <g id="line2d_3">
     <path d="M 703.788186 447.495495 
L 709.087313 451.958869 
" style="fill:none;stroke:#555555;stroke-width:0.8;"/>
    </g>
    <g id="text_2">
     <!-- 20 -->
     <defs>
      <path d="M 19.1875 8.296875 
L 53.609375 8.296875 
L 53.609375 0 
L 7.328125 0 
L 7.328125 8.296875 
Q 12.9375 14.109375 22.625 23.890625 
Q 32.328125 33.6875 34.8125 36.53125 
Q 39.546875 41.84375 41.421875 45.53125 
Q 43.3125 49.21875 43.3125 52.78125 
Q 43.3125 58.59375 39.234375 62.25 
Q 35.15625 65.921875 28.609375 65.921875 
Q 23.96875 65.921875 18.8125 64.3125 
Q 13.671875 62.703125 7.8125 59.421875 
L 7.8125 69.390625 
Q 13.765625 71.78125 18.9375 73 
Q 24.125 74.21875 28.421875 74.21875 
Q 39.75 74.21875 46.484375 68.546875 
Q 53.21875 62.890625 53.21875 53.421875 
Q 53.21875 48.921875 51.53125 44.890625 
Q 49.859375 40.875 45.40625 35.40625 
Q 44.1875 33.984375 37.640625 27.21875 
Q 31.109375 20.453125 19.1875 8.296875 
z
" id="DejaVuSans-50"/>
      <path d="M 31.78125 66.40625 
Q 24.171875 66.40625 20.328125 58.90625 
Q 16.5 51.421875 16.5 36.375 
Q 16.5 21.390625 20.328125 13.890625 
Q 24.171875 6.390625 31.78125 6.390625 
Q 39.453125 6.390625 43.28125 13.890625 
Q 47.125 21.390625 47.125 36.375 
Q 47.125 51.421875 43.28125 58.90625 
Q 39.453125 66.40625 31.78125 66.40625 
z
M 31.78125 74.21875 
Q 44.046875 74.21875 50.515625 64.515625 
Q 56.984375 54.828125 56.984375 36.375 
Q 56.984375 17.96875 50.515625 8.265625 
Q 44.046875 -1.421875 31.78125 -1.421875 
Q 19.53125 -1.421875 13.0625 8.265625 
Q 6.59375 17.96875 6.59375 36.375 
Q 6.59375 54.828125 13.0625 64.515625 
Q 19.53125 74.21875 31.78125 74.21875 
z
" id="DejaVuSans-48"/>
     </defs>
     <g style="fill:#555555;" transform="translate(706.344849 468.966544)scale(0.1 -0.1)">
      <use xlink:href="#DejaVuSans-50"/>
      <use x="63.623047" xlink:href="#DejaVuSans-48"/>
     </g>
    </g>
   </g>
   <g id="xtick_2">
    <g id="line2d_4">
     <path clip-path="url(#p6378cc4d4c)" d="M 455.117838 315.768649 
" style="fill:none;stroke:#ffffff;"/>
    </g>
    <g id="line2d_5">
     <path d="M 655.650947 462.266977 
L 660.908215 466.770628 
" style="fill:none;stroke:#555555;stroke-width:0.8;"/>
    </g>
    <g id="text_3">
     <!-- 40 -->
     <defs>
      <path d="M 37.796875 64.3125 
L 12.890625 25.390625 
L 37.796875 25.390625 
z
M 35.203125 72.90625 
L 47.609375 72.90625 
L 47.609375 25.390625 
L 58.015625 25.390625 
L 58.015625 17.1875 
L 47.609375 17.1875 
L 47.609375 0 
L 37.796875 0 
L 37.796875 17.1875 
L 4.890625 17.1875 
L 4.890625 26.703125 
z
" id="DejaVuSans-52"/>
     </defs>
     <g style="fill:#555555;" transform="translate(658.262447 483.7959)scale(0.1 -0.1)">
      <use xlink:href="#DejaVuSans-52"/>
      <use x="63.623047" xlink:href="#DejaVuSans-48"/>
     </g>
    </g>
   </g>
   <g id="xtick_3">
    <g id="line2d_6">
     <path clip-path="url(#p6378cc4d4c)" d="M 455.117838 315.768649 
" style="fill:none;stroke:#ffffff;"/>
    </g>
    <g id="line2d_7">
     <path d="M 607.078622 477.171969 
L 612.293055 481.716447 
" style="fill:none;stroke:#555555;stroke-width:0.8;"/>
    </g>
    <g id="text_4">
     <!-- 60 -->
     <defs>
      <path d="M 33.015625 40.375 
Q 26.375 40.375 22.484375 35.828125 
Q 18.609375 31.296875 18.609375 23.390625 
Q 18.609375 15.53125 22.484375 10.953125 
Q 26.375 6.390625 33.015625 6.390625 
Q 39.65625 6.390625 43.53125 10.953125 
Q 47.40625 15.53125 47.40625 23.390625 
Q 47.40625 31.296875 43.53125 35.828125 
Q 39.65625 40.375 33.015625 40.375 
z
M 52.59375 71.296875 
L 52.59375 62.3125 
Q 48.875 64.0625 45.09375 64.984375 
Q 41.3125 65.921875 37.59375 65.921875 
Q 27.828125 65.921875 22.671875 59.328125 
Q 17.53125 52.734375 16.796875 39.40625 
Q 19.671875 43.65625 24.015625 45.921875 
Q 28.375 48.1875 33.59375 48.1875 
Q 44.578125 48.1875 50.953125 41.515625 
Q 57.328125 34.859375 57.328125 23.390625 
Q 57.328125 12.15625 50.6875 5.359375 
Q 44.046875 -1.421875 33.015625 -1.421875 
Q 20.359375 -1.421875 13.671875 8.265625 
Q 6.984375 17.96875 6.984375 36.375 
Q 6.984375 53.65625 15.1875 63.9375 
Q 23.390625 74.21875 37.203125 74.21875 
Q 40.921875 74.21875 44.703125 73.484375 
Q 48.484375 72.75 52.59375 71.296875 
z
" id="DejaVuSans-54"/>
     </defs>
     <g style="fill:#555555;" transform="translate(609.745589 498.759248)scale(0.1 -0.1)">
      <use xlink:href="#DejaVuSans-54"/>
      <use x="63.623047" xlink:href="#DejaVuSans-48"/>
     </g>
    </g>
   </g>
   <g id="xtick_4">
    <g id="line2d_8">
     <path clip-path="url(#p6378cc4d4c)" d="M 455.117838 315.768649 
" style="fill:none;stroke:#ffffff;"/>
    </g>
    <g id="line2d_9">
     <path d="M 558.065288 492.21229 
L 563.235888 496.798152 
" style="fill:none;stroke:#555555;stroke-width:0.8;"/>
    </g>
    <g id="text_5">
     <!-- 80 -->
     <defs>
      <path d="M 31.78125 34.625 
Q 24.75 34.625 20.71875 30.859375 
Q 16.703125 27.09375 16.703125 20.515625 
Q 16.703125 13.921875 20.71875 10.15625 
Q 24.75 6.390625 31.78125 6.390625 
Q 38.8125 6.390625 42.859375 10.171875 
Q 46.921875 13.96875 46.921875 20.515625 
Q 46.921875 27.09375 42.890625 30.859375 
Q 38.875 34.625 31.78125 34.625 
z
M 21.921875 38.8125 
Q 15.578125 40.375 12.03125 44.71875 
Q 8.5 49.078125 8.5 55.328125 
Q 8.5 64.0625 14.71875 69.140625 
Q 20.953125 74.21875 31.78125 74.21875 
Q 42.671875 74.21875 48.875 69.140625 
Q 55.078125 64.0625 55.078125 55.328125 
Q 55.078125 49.078125 51.53125 44.71875 
Q 48 40.375 41.703125 38.8125 
Q 48.828125 37.15625 52.796875 32.3125 
Q 56.78125 27.484375 56.78125 20.515625 
Q 56.78125 9.90625 50.3125 4.234375 
Q 43.84375 -1.421875 31.78125 -1.421875 
Q 19.734375 -1.421875 13.25 4.234375 
Q 6.78125 9.90625 6.78125 20.515625 
Q 6.78125 27.484375 10.78125 32.3125 
Q 14.796875 37.15625 21.921875 38.8125 
z
M 18.3125 54.390625 
Q 18.3125 48.734375 21.84375 45.5625 
Q 25.390625 42.390625 31.78125 42.390625 
Q 38.140625 42.390625 41.71875 45.5625 
Q 45.3125 48.734375 45.3125 54.390625 
Q 45.3125 60.0625 41.71875 63.234375 
Q 38.140625 66.40625 31.78125 66.40625 
Q 25.390625 66.40625 21.84375 63.234375 
Q 18.3125 60.0625 18.3125 54.390625 
z
" id="DejaVuSans-56"/>
     </defs>
     <g style="fill:#555555;" transform="translate(560.78836 513.858413)scale(0.1 -0.1)">
      <use xlink:href="#DejaVuSans-56"/>
      <use x="63.623047" xlink:href="#DejaVuSans-48"/>
     </g>
    </g>
   </g>
   <g id="xtick_5">
    <g id="line2d_10">
     <path clip-path="url(#p6378cc4d4c)" d="M 455.117838 315.768649 
" style="fill:none;stroke:#ffffff;"/>
    </g>
    <g id="line2d_11">
     <path d="M 508.604909 507.389792 
L 513.730659 512.017605 
" style="fill:none;stroke:#555555;stroke-width:0.8;"/>
    </g>
    <g id="text_6">
     <!-- 100 -->
     <defs>
      <path d="M 12.40625 8.296875 
L 28.515625 8.296875 
L 28.515625 63.921875 
L 10.984375 60.40625 
L 10.984375 69.390625 
L 28.421875 72.90625 
L 38.28125 72.90625 
L 38.28125 8.296875 
L 54.390625 8.296875 
L 54.390625 0 
L 12.40625 0 
z
" id="DejaVuSans-49"/>
     </defs>
     <g style="fill:#555555;" transform="translate(508.203488 529.095254)scale(0.1 -0.1)">
      <use xlink:href="#DejaVuSans-49"/>
      <use x="63.623047" xlink:href="#DejaVuSans-48"/>
      <use x="127.246094" xlink:href="#DejaVuSans-48"/>
     </g>
    </g>
   </g>
   <g id="xtick_6">
    <g id="line2d_12">
     <path clip-path="url(#p6378cc4d4c)" d="M 455.117838 315.768649 
" style="fill:none;stroke:#ffffff;"/>
    </g>
    <g id="line2d_13">
     <path d="M 458.691342 522.706361 
L 463.771199 527.376703 
" style="fill:none;stroke:#555555;stroke-width:0.8;"/>
    </g>
    <g id="text_7">
     <!-- 120 -->
     <g style="fill:#555555;" transform="translate(458.347338 544.47166)scale(0.1 -0.1)">
      <use xlink:href="#DejaVuSans-49"/>
      <use x="63.623047" xlink:href="#DejaVuSans-50"/>
      <use x="127.246094" xlink:href="#DejaVuSans-48"/>
     </g>
    </g>
   </g>
   <g id="xtick_7">
    <g id="line2d_14">
     <path clip-path="url(#p6378cc4d4c)" d="M 455.117838 315.768649 
" style="fill:none;stroke:#ffffff;"/>
    </g>
    <g id="line2d_15">
     <path d="M 408.31833 538.163915 
L 413.351229 542.877377 
" style="fill:none;stroke:#555555;stroke-width:0.8;"/>
    </g>
    <g id="text_8">
     <!-- 140 -->
     <g style="fill:#555555;" transform="translate(408.032415 559.989559)scale(0.1 -0.1)">
      <use xlink:href="#DejaVuSans-49"/>
      <use x="63.623047" xlink:href="#DejaVuSans-52"/>
      <use x="127.246094" xlink:href="#DejaVuSans-48"/>
     </g>
    </g>
   </g>
  </g>
  <g id="axis3d_2">
   <g id="line2d_16">
    <path d="M 180.366211 363.209635 
L 377.204373 549.801831 
" style="fill:none;stroke:#ffffff;"/>
   </g>
   <g id="text_9">
    <!-- log(lr) -->
    <defs>
     <path d="M 9.421875 75.984375 
L 18.40625 75.984375 
L 18.40625 0 
L 9.421875 0 
z
" id="DejaVuSans-108"/>
     <path d="M 30.609375 48.390625 
Q 23.390625 48.390625 19.1875 42.75 
Q 14.984375 37.109375 14.984375 27.296875 
Q 14.984375 17.484375 19.15625 11.84375 
Q 23.34375 6.203125 30.609375 6.203125 
Q 37.796875 6.203125 41.984375 11.859375 
Q 46.1875 17.53125 46.1875 27.296875 
Q 46.1875 37.015625 41.984375 42.703125 
Q 37.796875 48.390625 30.609375 48.390625 
z
M 30.609375 56 
Q 42.328125 56 49.015625 48.375 
Q 55.71875 40.765625 55.71875 27.296875 
Q 55.71875 13.875 49.015625 6.21875 
Q 42.328125 -1.421875 30.609375 -1.421875 
Q 18.84375 -1.421875 12.171875 6.21875 
Q 5.515625 13.875 5.515625 27.296875 
Q 5.515625 40.765625 12.171875 48.375 
Q 18.84375 56 30.609375 56 
z
" id="DejaVuSans-111"/>
     <path d="M 45.40625 27.984375 
Q 45.40625 37.75 41.375 43.109375 
Q 37.359375 48.484375 30.078125 48.484375 
Q 22.859375 48.484375 18.828125 43.109375 
Q 14.796875 37.75 14.796875 27.984375 
Q 14.796875 18.265625 18.828125 12.890625 
Q 22.859375 7.515625 30.078125 7.515625 
Q 37.359375 7.515625 41.375 12.890625 
Q 45.40625 18.265625 45.40625 27.984375 
z
M 54.390625 6.78125 
Q 54.390625 -7.171875 48.1875 -13.984375 
Q 42 -20.796875 29.203125 -20.796875 
Q 24.46875 -20.796875 20.265625 -20.09375 
Q 16.0625 -19.390625 12.109375 -17.921875 
L 12.109375 -9.1875 
Q 16.0625 -11.328125 19.921875 -12.34375 
Q 23.78125 -13.375 27.78125 -13.375 
Q 36.625 -13.375 41.015625 -8.765625 
Q 45.40625 -4.15625 45.40625 5.171875 
L 45.40625 9.625 
Q 42.625 4.78125 38.28125 2.390625 
Q 33.9375 0 27.875 0 
Q 17.828125 0 11.671875 7.65625 
Q 5.515625 15.328125 5.515625 27.984375 
Q 5.515625 40.671875 11.671875 48.328125 
Q 17.828125 56 27.875 56 
Q 33.9375 56 38.28125 53.609375 
Q 42.625 51.21875 45.40625 46.390625 
L 45.40625 54.6875 
L 54.390625 54.6875 
z
" id="DejaVuSans-103"/>
     <path d="M 31 75.875 
Q 24.46875 64.65625 21.28125 53.65625 
Q 18.109375 42.671875 18.109375 31.390625 
Q 18.109375 20.125 21.3125 9.0625 
Q 24.515625 -2 31 -13.1875 
L 23.1875 -13.1875 
Q 15.875 -1.703125 12.234375 9.375 
Q 8.59375 20.453125 8.59375 31.390625 
Q 8.59375 42.28125 12.203125 53.3125 
Q 15.828125 64.359375 23.1875 75.875 
z
" id="DejaVuSans-40"/>
     <path d="M 41.109375 46.296875 
Q 39.59375 47.171875 37.8125 47.578125 
Q 36.03125 48 33.890625 48 
Q 26.265625 48 22.1875 43.046875 
Q 18.109375 38.09375 18.109375 28.8125 
L 18.109375 0 
L 9.078125 0 
L 9.078125 54.6875 
L 18.109375 54.6875 
L 18.109375 46.1875 
Q 20.953125 51.171875 25.484375 53.578125 
Q 30.03125 56 36.53125 56 
Q 37.453125 56 38.578125 55.875 
Q 39.703125 55.765625 41.0625 55.515625 
z
" id="DejaVuSans-114"/>
     <path d="M 8.015625 75.875 
L 15.828125 75.875 
Q 23.140625 64.359375 26.78125 53.3125 
Q 30.421875 42.28125 30.421875 31.390625 
Q 30.421875 20.453125 26.78125 9.375 
Q 23.140625 -1.703125 15.828125 -13.1875 
L 8.015625 -13.1875 
Q 14.5 -2 17.703125 9.0625 
Q 20.90625 20.125 20.90625 31.390625 
Q 20.90625 42.671875 17.703125 53.65625 
Q 14.5 64.65625 8.015625 75.875 
z
" id="DejaVuSans-41"/>
    </defs>
    <g style="fill:#555555;" transform="translate(233.689673 464.717374)rotate(-316.530685)scale(0.12 -0.12)">
     <use xlink:href="#DejaVuSans-108"/>
     <use x="27.783203" xlink:href="#DejaVuSans-111"/>
     <use x="88.964844" xlink:href="#DejaVuSans-103"/>
     <use x="152.441406" xlink:href="#DejaVuSans-40"/>
     <use x="191.455078" xlink:href="#DejaVuSans-108"/>
     <use x="219.238281" xlink:href="#DejaVuSans-114"/>
     <use x="260.351562" xlink:href="#DejaVuSans-41"/>
    </g>
   </g>
   <g id="Line3DCollection_2">
    <path d="M 536.42906 87.821522 
L 530.446111 267.872407 
L 184.090115 366.7397 
" style="fill:none;stroke:#ffffff;"/>
    <path d="M 571.202983 115.072525 
L 562.587633 294.654614 
L 214.179843 395.263175 
" style="fill:none;stroke:#ffffff;"/>
    <path d="M 606.631243 142.836307 
L 595.288683 321.903052 
L 244.810364 424.299294 
" style="fill:none;stroke:#ffffff;"/>
    <path d="M 642.732485 171.127478 
L 628.563997 349.630001 
L 275.996391 453.862002 
" style="fill:none;stroke:#ffffff;"/>
    <path d="M 679.526066 199.96121 
L 662.428838 377.848179 
L 307.753173 483.965757 
" style="fill:none;stroke:#ffffff;"/>
    <path d="M 717.032097 229.353262 
L 696.899012 406.570755 
L 340.096523 514.625547 
" style="fill:none;stroke:#ffffff;"/>
    <path d="M 755.271473 259.320009 
L 731.990896 435.811377 
L 373.042845 545.856923 
" style="fill:none;stroke:#ffffff;"/>
   </g>
   <g id="xtick_8">
    <g id="line2d_17">
     <path clip-path="url(#p6378cc4d4c)" d="M 455.117838 315.768649 
" style="fill:none;stroke:#ffffff;"/>
    </g>
    <g id="line2d_18">
     <path d="M 186.948498 365.923775 
L 178.368977 368.372798 
" style="fill:none;stroke:#555555;stroke-width:0.8;"/>
    </g>
    <g id="text_10">
     <!-- −17 -->
     <defs>
      <path d="M 10.59375 35.5 
L 73.1875 35.5 
L 73.1875 27.203125 
L 10.59375 27.203125 
z
" id="DejaVuSans-8722"/>
      <path d="M 8.203125 72.90625 
L 55.078125 72.90625 
L 55.078125 68.703125 
L 28.609375 0 
L 18.3125 0 
L 43.21875 64.59375 
L 8.203125 64.59375 
z
" id="DejaVuSans-55"/>
     </defs>
     <g style="fill:#555555;" transform="translate(161.570608 383.81157)scale(0.1 -0.1)">
      <use xlink:href="#DejaVuSans-8722"/>
      <use x="83.789062" xlink:href="#DejaVuSans-49"/>
      <use x="147.412109" xlink:href="#DejaVuSans-55"/>
     </g>
    </g>
   </g>
   <g id="xtick_9">
    <g id="line2d_19">
     <path clip-path="url(#p6378cc4d4c)" d="M 455.117838 315.768649 
" style="fill:none;stroke:#ffffff;"/>
    </g>
    <g id="line2d_20">
     <path d="M 217.055942 394.432653 
L 208.423205 396.9255 
" style="fill:none;stroke:#555555;stroke-width:0.8;"/>
    </g>
    <g id="text_11">
     <!-- −16 -->
     <g style="fill:#555555;" transform="translate(191.506386 412.374224)scale(0.1 -0.1)">
      <use xlink:href="#DejaVuSans-8722"/>
      <use x="83.789062" xlink:href="#DejaVuSans-49"/>
      <use x="147.412109" xlink:href="#DejaVuSans-54"/>
     </g>
    </g>
   </g>
   <g id="xtick_10">
    <g id="line2d_21">
     <path clip-path="url(#p6378cc4d4c)" d="M 455.117838 315.768649 
" style="fill:none;stroke:#ffffff;"/>
    </g>
    <g id="line2d_22">
     <path d="M 247.704359 423.45378 
L 239.017868 425.991638 
" style="fill:none;stroke:#555555;stroke-width:0.8;"/>
    </g>
    <g id="text_12">
     <!-- −15 -->
     <defs>
      <path d="M 10.796875 72.90625 
L 49.515625 72.90625 
L 49.515625 64.59375 
L 19.828125 64.59375 
L 19.828125 46.734375 
Q 21.96875 47.46875 24.109375 47.828125 
Q 26.265625 48.1875 28.421875 48.1875 
Q 40.625 48.1875 47.75 41.5 
Q 54.890625 34.8125 54.890625 23.390625 
Q 54.890625 11.625 47.5625 5.09375 
Q 40.234375 -1.421875 26.90625 -1.421875 
Q 22.3125 -1.421875 17.546875 -0.640625 
Q 12.796875 0.140625 7.71875 1.703125 
L 7.71875 11.625 
Q 12.109375 9.234375 16.796875 8.0625 
Q 21.484375 6.890625 26.703125 6.890625 
Q 35.15625 6.890625 40.078125 11.328125 
Q 45.015625 15.765625 45.015625 23.390625 
Q 45.015625 31 40.078125 35.4375 
Q 35.15625 39.890625 26.703125 39.890625 
Q 22.75 39.890625 18.8125 39.015625 
Q 14.890625 38.140625 10.796875 36.28125 
z
" id="DejaVuSans-53"/>
     </defs>
     <g style="fill:#555555;" transform="translate(221.979332 441.449408)scale(0.1 -0.1)">
      <use xlink:href="#DejaVuSans-8722"/>
      <use x="83.789062" xlink:href="#DejaVuSans-49"/>
      <use x="147.412109" xlink:href="#DejaVuSans-53"/>
     </g>
    </g>
   </g>
   <g id="xtick_11">
    <g id="line2d_23">
     <path clip-path="url(#p6378cc4d4c)" d="M 455.117838 315.768649 
" style="fill:none;stroke:#ffffff;"/>
    </g>
    <g id="line2d_24">
     <path d="M 278.90846 453.001087 
L 270.167677 455.585185 
" style="fill:none;stroke:#555555;stroke-width:0.8;"/>
    </g>
    <g id="text_13">
     <!-- −14 -->
     <g style="fill:#555555;" transform="translate(253.004038 471.051042)scale(0.1 -0.1)">
      <use xlink:href="#DejaVuSans-8722"/>
      <use x="83.789062" xlink:href="#DejaVuSans-49"/>
      <use x="147.412109" xlink:href="#DejaVuSans-52"/>
     </g>
    </g>
   </g>
   <g id="xtick_12">
    <g id="line2d_25">
     <path clip-path="url(#p6378cc4d4c)" d="M 455.117838 315.768649 
" style="fill:none;stroke:#ffffff;"/>
    </g>
    <g id="line2d_26">
     <path d="M 310.683496 483.089015 
L 301.88788 485.720629 
" style="fill:none;stroke:#555555;stroke-width:0.8;"/>
    </g>
    <g id="text_14">
     <!-- −13 -->
     <defs>
      <path d="M 40.578125 39.3125 
Q 47.65625 37.796875 51.625 33 
Q 55.609375 28.21875 55.609375 21.1875 
Q 55.609375 10.40625 48.1875 4.484375 
Q 40.765625 -1.421875 27.09375 -1.421875 
Q 22.515625 -1.421875 17.65625 -0.515625 
Q 12.796875 0.390625 7.625 2.203125 
L 7.625 11.71875 
Q 11.71875 9.328125 16.59375 8.109375 
Q 21.484375 6.890625 26.8125 6.890625 
Q 36.078125 6.890625 40.9375 10.546875 
Q 45.796875 14.203125 45.796875 21.1875 
Q 45.796875 27.640625 41.28125 31.265625 
Q 36.765625 34.90625 28.71875 34.90625 
L 20.21875 34.90625 
L 20.21875 43.015625 
L 29.109375 43.015625 
Q 36.375 43.015625 40.234375 45.921875 
Q 44.09375 48.828125 44.09375 54.296875 
Q 44.09375 59.90625 40.109375 62.90625 
Q 36.140625 65.921875 28.71875 65.921875 
Q 24.65625 65.921875 20.015625 65.03125 
Q 15.375 64.15625 9.8125 62.3125 
L 9.8125 71.09375 
Q 15.4375 72.65625 20.34375 73.4375 
Q 25.25 74.21875 29.59375 74.21875 
Q 40.828125 74.21875 47.359375 69.109375 
Q 53.90625 64.015625 53.90625 55.328125 
Q 53.90625 49.265625 50.4375 45.09375 
Q 46.96875 40.921875 40.578125 39.3125 
z
" id="DejaVuSans-51"/>
     </defs>
     <g style="fill:#555555;" transform="translate(284.595624 501.193555)scale(0.1 -0.1)">
      <use xlink:href="#DejaVuSans-8722"/>
      <use x="83.789062" xlink:href="#DejaVuSans-49"/>
      <use x="147.412109" xlink:href="#DejaVuSans-51"/>
     </g>
    </g>
   </g>
   <g id="xtick_13">
    <g id="line2d_27">
     <path clip-path="url(#p6378cc4d4c)" d="M 455.117838 315.768649 
" style="fill:none;stroke:#ffffff;"/>
    </g>
    <g id="line2d_28">
     <path d="M 343.045281 513.732539 
L 334.194289 516.412992 
" style="fill:none;stroke:#555555;stroke-width:0.8;"/>
    </g>
    <g id="text_15">
     <!-- −12 -->
     <g style="fill:#555555;" transform="translate(316.769772 531.891908)scale(0.1 -0.1)">
      <use xlink:href="#DejaVuSans-8722"/>
      <use x="83.789062" xlink:href="#DejaVuSans-49"/>
      <use x="147.412109" xlink:href="#DejaVuSans-50"/>
     </g>
    </g>
   </g>
   <g id="xtick_14">
    <g id="line2d_29">
     <path clip-path="url(#p6378cc4d4c)" d="M 455.117838 315.768649 
" style="fill:none;stroke:#ffffff;"/>
    </g>
    <g id="line2d_30">
     <path d="M 376.010219 544.947192 
L 367.103304 547.677855 
" style="fill:none;stroke:#555555;stroke-width:0.8;"/>
    </g>
    <g id="text_16">
     <!-- −11 -->
     <g style="fill:#555555;" transform="translate(349.542746 563.161619)scale(0.1 -0.1)">
      <use xlink:href="#DejaVuSans-8722"/>
      <use x="83.789062" xlink:href="#DejaVuSans-49"/>
      <use x="147.412109" xlink:href="#DejaVuSans-49"/>
     </g>
    </g>
   </g>
  </g>
  <g id="axis3d_3">
   <g id="line2d_31">
    <path d="M 180.366211 363.209635 
L 157.818743 184.998129 
" style="fill:none;stroke:#ffffff;"/>
   </g>
   <g id="text_17">
    <!-- OPE score -->
    <defs>
     <path d="M 39.40625 66.21875 
Q 28.65625 66.21875 22.328125 58.203125 
Q 16.015625 50.203125 16.015625 36.375 
Q 16.015625 22.609375 22.328125 14.59375 
Q 28.65625 6.59375 39.40625 6.59375 
Q 50.140625 6.59375 56.421875 14.59375 
Q 62.703125 22.609375 62.703125 36.375 
Q 62.703125 50.203125 56.421875 58.203125 
Q 50.140625 66.21875 39.40625 66.21875 
z
M 39.40625 74.21875 
Q 54.734375 74.21875 63.90625 63.9375 
Q 73.09375 53.65625 73.09375 36.375 
Q 73.09375 19.140625 63.90625 8.859375 
Q 54.734375 -1.421875 39.40625 -1.421875 
Q 24.03125 -1.421875 14.8125 8.828125 
Q 5.609375 19.09375 5.609375 36.375 
Q 5.609375 53.65625 14.8125 63.9375 
Q 24.03125 74.21875 39.40625 74.21875 
z
" id="DejaVuSans-79"/>
     <path d="M 19.671875 64.796875 
L 19.671875 37.40625 
L 32.078125 37.40625 
Q 38.96875 37.40625 42.71875 40.96875 
Q 46.484375 44.53125 46.484375 51.125 
Q 46.484375 57.671875 42.71875 61.234375 
Q 38.96875 64.796875 32.078125 64.796875 
z
M 9.8125 72.90625 
L 32.078125 72.90625 
Q 44.34375 72.90625 50.609375 67.359375 
Q 56.890625 61.8125 56.890625 51.125 
Q 56.890625 40.328125 50.609375 34.8125 
Q 44.34375 29.296875 32.078125 29.296875 
L 19.671875 29.296875 
L 19.671875 0 
L 9.8125 0 
z
" id="DejaVuSans-80"/>
     <path d="M 9.8125 72.90625 
L 55.90625 72.90625 
L 55.90625 64.59375 
L 19.671875 64.59375 
L 19.671875 43.015625 
L 54.390625 43.015625 
L 54.390625 34.71875 
L 19.671875 34.71875 
L 19.671875 8.296875 
L 56.78125 8.296875 
L 56.78125 0 
L 9.8125 0 
z
" id="DejaVuSans-69"/>
     <path id="DejaVuSans-32"/>
     <path d="M 48.78125 52.59375 
L 48.78125 44.1875 
Q 44.96875 46.296875 41.140625 47.34375 
Q 37.3125 48.390625 33.40625 48.390625 
Q 24.65625 48.390625 19.8125 42.84375 
Q 14.984375 37.3125 14.984375 27.296875 
Q 14.984375 17.28125 19.8125 11.734375 
Q 24.65625 6.203125 33.40625 6.203125 
Q 37.3125 6.203125 41.140625 7.25 
Q 44.96875 8.296875 48.78125 10.40625 
L 48.78125 2.09375 
Q 45.015625 0.34375 40.984375 -0.53125 
Q 36.96875 -1.421875 32.421875 -1.421875 
Q 20.0625 -1.421875 12.78125 6.34375 
Q 5.515625 14.109375 5.515625 27.296875 
Q 5.515625 40.671875 12.859375 48.328125 
Q 20.21875 56 33.015625 56 
Q 37.15625 56 41.109375 55.140625 
Q 45.0625 54.296875 48.78125 52.59375 
z
" id="DejaVuSans-99"/>
    </defs>
    <g style="fill:#555555;" transform="translate(118.879868 242.158876)rotate(-277.210797)scale(0.12 -0.12)">
     <use xlink:href="#DejaVuSans-79"/>
     <use x="78.710938" xlink:href="#DejaVuSans-80"/>
     <use x="139.013672" xlink:href="#DejaVuSans-69"/>
     <use x="202.197266" xlink:href="#DejaVuSans-32"/>
     <use x="233.984375" xlink:href="#DejaVuSans-115"/>
     <use x="286.083984" xlink:href="#DejaVuSans-99"/>
     <use x="341.064453" xlink:href="#DejaVuSans-111"/>
     <use x="402.246094" xlink:href="#DejaVuSans-114"/>
     <use x="443.328125" xlink:href="#DejaVuSans-101"/>
    </g>
   </g>
   <g id="Line3DCollection_3">
    <path d="M 178.396679 347.642776 
L 526.962626 248.788116 
L 738.486881 424.12279 
" style="fill:none;stroke:#ffffff;"/>
    <path d="M 175.239249 322.686959 
L 527.756649 223.523258 
L 741.798748 399.454291 
" style="fill:none;stroke:#ffffff;"/>
    <path d="M 172.008933 297.155069 
L 528.56842 197.693708 
L 745.188946 374.202348 
" style="fill:none;stroke:#ffffff;"/>
    <path d="M 168.703178 271.026926 
L 529.398539 171.28032 
L 748.660286 348.346014 
" style="fill:none;stroke:#ffffff;"/>
    <path d="M 165.319312 244.281399 
L 530.247637 144.263073 
L 752.215717 321.863329 
" style="fill:none;stroke:#ffffff;"/>
    <path d="M 161.854532 216.896341 
L 531.116371 116.621019 
L 755.858332 294.731254 
" style="fill:none;stroke:#ffffff;"/>
    <path d="M 158.3059 188.848538 
L 532.00543 88.332231 
L 759.591378 266.925606 
" style="fill:none;stroke:#ffffff;"/>
   </g>
   <g id="xtick_15">
    <g id="line2d_32">
     <path clip-path="url(#p6378cc4d4c)" d="M 455.117838 315.768649 
" style="fill:none;stroke:#ffffff;"/>
    </g>
    <g id="line2d_33">
     <path d="M 181.273834 346.826804 
L 172.637942 349.275976 
" style="fill:none;stroke:#555555;stroke-width:0.8;"/>
    </g>
    <g id="text_18">
     <!-- 0.54 -->
     <defs>
      <path d="M 10.6875 12.40625 
L 21 12.40625 
L 21 0 
L 10.6875 0 
z
" id="DejaVuSans-46"/>
     </defs>
     <g style="fill:#555555;" transform="translate(147.816053 352.585625)scale(0.1 -0.1)">
      <use xlink:href="#DejaVuSans-48"/>
      <use x="63.623047" xlink:href="#DejaVuSans-46"/>
      <use x="95.410156" xlink:href="#DejaVuSans-53"/>
      <use x="159.033203" xlink:href="#DejaVuSans-52"/>
     </g>
    </g>
   </g>
   <g id="xtick_16">
    <g id="line2d_34">
     <path clip-path="url(#p6378cc4d4c)" d="M 455.117838 315.768649 
" style="fill:none;stroke:#ffffff;"/>
    </g>
    <g id="line2d_35">
     <path d="M 178.150042 321.868148 
L 169.413131 324.325855 
" style="fill:none;stroke:#555555;stroke-width:0.8;"/>
    </g>
    <g id="text_19">
     <!-- 0.56 -->
     <g style="fill:#555555;" transform="translate(144.43957 327.620587)scale(0.1 -0.1)">
      <use xlink:href="#DejaVuSans-48"/>
      <use x="63.623047" xlink:href="#DejaVuSans-46"/>
      <use x="95.410156" xlink:href="#DejaVuSans-53"/>
      <use x="159.033203" xlink:href="#DejaVuSans-54"/>
     </g>
    </g>
   </g>
   <g id="xtick_17">
    <g id="line2d_36">
     <path clip-path="url(#p6378cc4d4c)" d="M 455.117838 315.768649 
" style="fill:none;stroke:#ffffff;"/>
    </g>
    <g id="line2d_37">
     <path d="M 174.95416 296.333505 
L 166.11384 298.79949 
" style="fill:none;stroke:#555555;stroke-width:0.8;"/>
    </g>
    <g id="text_20">
     <!-- 0.58 -->
     <g style="fill:#555555;" transform="translate(140.985213 302.079756)scale(0.1 -0.1)">
      <use xlink:href="#DejaVuSans-48"/>
      <use x="63.623047" xlink:href="#DejaVuSans-46"/>
      <use x="95.410156" xlink:href="#DejaVuSans-53"/>
      <use x="159.033203" xlink:href="#DejaVuSans-56"/>
     </g>
    </g>
   </g>
   <g id="xtick_18">
    <g id="line2d_38">
     <path clip-path="url(#p6378cc4d4c)" d="M 455.117838 315.768649 
" style="fill:none;stroke:#ffffff;"/>
    </g>
    <g id="line2d_39">
     <path d="M 171.683664 270.202704 
L 162.737459 272.676685 
" style="fill:none;stroke:#555555;stroke-width:0.8;"/>
    </g>
    <g id="text_21">
     <!-- 0.60 -->
     <g style="fill:#555555;" transform="translate(137.450255 275.942978)scale(0.1 -0.1)">
      <use xlink:href="#DejaVuSans-48"/>
      <use x="63.623047" xlink:href="#DejaVuSans-46"/>
      <use x="95.410156" xlink:href="#DejaVuSans-54"/>
      <use x="159.033203" xlink:href="#DejaVuSans-48"/>
     </g>
    </g>
   </g>
   <g id="xtick_19">
    <g id="line2d_40">
     <path clip-path="url(#p6378cc4d4c)" d="M 455.117838 315.768649 
" style="fill:none;stroke:#ffffff;"/>
    </g>
    <g id="line2d_41">
     <path d="M 168.335909 243.45462 
L 159.281255 245.936289 
" style="fill:none;stroke:#555555;stroke-width:0.8;"/>
    </g>
    <g id="text_22">
     <!-- 0.62 -->
     <g style="fill:#555555;" transform="translate(133.831842 249.189151)scale(0.1 -0.1)">
      <use xlink:href="#DejaVuSans-48"/>
      <use x="63.623047" xlink:href="#DejaVuSans-46"/>
      <use x="95.410156" xlink:href="#DejaVuSans-54"/>
      <use x="159.033203" xlink:href="#DejaVuSans-50"/>
     </g>
    </g>
   </g>
   <g id="xtick_20">
    <g id="line2d_42">
     <path clip-path="url(#p6378cc4d4c)" d="M 455.117838 315.768649 
" style="fill:none;stroke:#ffffff;"/>
    </g>
    <g id="line2d_43">
     <path d="M 164.908126 216.067119 
L 155.742361 218.556139 
" style="fill:none;stroke:#555555;stroke-width:0.8;"/>
    </g>
    <g id="text_23">
     <!-- 0.64 -->
     <g style="fill:#555555;" transform="translate(130.126983 221.79616)scale(0.1 -0.1)">
      <use xlink:href="#DejaVuSans-48"/>
      <use x="63.623047" xlink:href="#DejaVuSans-46"/>
      <use x="95.410156" xlink:href="#DejaVuSans-54"/>
      <use x="159.033203" xlink:href="#DejaVuSans-52"/>
     </g>
    </g>
   </g>
   <g id="xtick_21">
    <g id="line2d_44">
     <path clip-path="url(#p6378cc4d4c)" d="M 455.117838 315.768649 
" style="fill:none;stroke:#ffffff;"/>
    </g>
    <g id="line2d_45">
     <path d="M 161.39741 188.016995 
L 152.117776 190.512997 
" style="fill:none;stroke:#555555;stroke-width:0.8;"/>
    </g>
    <g id="text_24">
     <!-- 0.66 -->
     <g style="fill:#555555;" transform="translate(126.332543 193.740826)scale(0.1 -0.1)">
      <use xlink:href="#DejaVuSans-48"/>
      <use x="63.623047" xlink:href="#DejaVuSans-46"/>
      <use x="95.410156" xlink:href="#DejaVuSans-54"/>
      <use x="159.033203" xlink:href="#DejaVuSans-54"/>
     </g>
    </g>
   </g>
  </g>
  <g id="axes_1">
   <g id="Poly3DCollection_1">
    <path clip-path="url(#p6378cc4d4c)" d="M 611.27782 448.837503 
L 612.001387 439.172199 
L 539.256719 219.459603 
L 533.364948 381.58996 
z
" style="fill:#008000;fill-opacity:0.5;"/>
   </g>
   <g id="line2d_46">
    <path clip-path="url(#p6378cc4d4c)" d="M 708.531233 409.877266 
L 641.099081 190.818954 
L 615.69994 176.715598 
L 558.934216 133.290244 
L 534.857791 120.024662 
" style="fill:none;stroke:#e24a33;stroke-width:4;"/>
   </g>
   <g id="line2d_47">
    <path clip-path="url(#p6378cc4d4c)" d="M 526.030774 193.792449 
L 514.478266 182.556324 
L 503.166152 150.762052 
L 491.022673 148.615989 
L 478.781832 147.837491 
L 466.523643 135.915011 
L 454.084395 136.494257 
L 441.587605 137.076181 
L 439.103834 140.56089 
L 436.603088 141.239744 
L 433.989853 129.241238 
L 431.584388 141.196433 
L 428.940644 129.185107 
L 426.454317 132.697706 
L 423.991008 137.613618 
L 421.574622 145.319382 
L 419.002341 141.790803 
L 404.13894 157.073884 
L 378.814329 158.337922 
L 353.493607 165.214743 
L 327.981184 170.726321 
L 301.866282 169.256604 
L 276.828746 186.036049 
L 251.036847 193.040836 
L 172.600148 211.467292 
" style="fill:none;stroke:#348abd;stroke-width:4;"/>
   </g>
   <g id="Poly3DCollection_2">
    <path clip-path="url(#p6378cc4d4c)" d="M 533.364948 381.58996 
L 539.256719 219.459603 
L 514.533393 204.966949 
L 458.822221 160.699888 
L 435.40219 147.072884 
L 436.649343 298.113552 
z
" style="fill:#bfbf00;fill-opacity:0.5;"/>
   </g>
   <g id="text_25">
    <!-- update step and lr overview -->
    <defs>
     <path d="M 8.5 21.578125 
L 8.5 54.6875 
L 17.484375 54.6875 
L 17.484375 21.921875 
Q 17.484375 14.15625 20.5 10.265625 
Q 23.53125 6.390625 29.59375 6.390625 
Q 36.859375 6.390625 41.078125 11.03125 
Q 45.3125 15.671875 45.3125 23.6875 
L 45.3125 54.6875 
L 54.296875 54.6875 
L 54.296875 0 
L 45.3125 0 
L 45.3125 8.40625 
Q 42.046875 3.421875 37.71875 1 
Q 33.40625 -1.421875 27.6875 -1.421875 
Q 18.265625 -1.421875 13.375 4.4375 
Q 8.5 10.296875 8.5 21.578125 
z
M 31.109375 56 
z
" id="DejaVuSans-117"/>
     <path d="M 45.40625 46.390625 
L 45.40625 75.984375 
L 54.390625 75.984375 
L 54.390625 0 
L 45.40625 0 
L 45.40625 8.203125 
Q 42.578125 3.328125 38.25 0.953125 
Q 33.9375 -1.421875 27.875 -1.421875 
Q 17.96875 -1.421875 11.734375 6.484375 
Q 5.515625 14.40625 5.515625 27.296875 
Q 5.515625 40.1875 11.734375 48.09375 
Q 17.96875 56 27.875 56 
Q 33.9375 56 38.25 53.625 
Q 42.578125 51.265625 45.40625 46.390625 
z
M 14.796875 27.296875 
Q 14.796875 17.390625 18.875 11.75 
Q 22.953125 6.109375 30.078125 6.109375 
Q 37.203125 6.109375 41.296875 11.75 
Q 45.40625 17.390625 45.40625 27.296875 
Q 45.40625 37.203125 41.296875 42.84375 
Q 37.203125 48.484375 30.078125 48.484375 
Q 22.953125 48.484375 18.875 42.84375 
Q 14.796875 37.203125 14.796875 27.296875 
z
" id="DejaVuSans-100"/>
     <path d="M 34.28125 27.484375 
Q 23.390625 27.484375 19.1875 25 
Q 14.984375 22.515625 14.984375 16.5 
Q 14.984375 11.71875 18.140625 8.90625 
Q 21.296875 6.109375 26.703125 6.109375 
Q 34.1875 6.109375 38.703125 11.40625 
Q 43.21875 16.703125 43.21875 25.484375 
L 43.21875 27.484375 
z
M 52.203125 31.203125 
L 52.203125 0 
L 43.21875 0 
L 43.21875 8.296875 
Q 40.140625 3.328125 35.546875 0.953125 
Q 30.953125 -1.421875 24.3125 -1.421875 
Q 15.921875 -1.421875 10.953125 3.296875 
Q 6 8.015625 6 15.921875 
Q 6 25.140625 12.171875 29.828125 
Q 18.359375 34.515625 30.609375 34.515625 
L 43.21875 34.515625 
L 43.21875 35.40625 
Q 43.21875 41.609375 39.140625 45 
Q 35.0625 48.390625 27.6875 48.390625 
Q 23 48.390625 18.546875 47.265625 
Q 14.109375 46.140625 10.015625 43.890625 
L 10.015625 52.203125 
Q 14.9375 54.109375 19.578125 55.046875 
Q 24.21875 56 28.609375 56 
Q 40.484375 56 46.34375 49.84375 
Q 52.203125 43.703125 52.203125 31.203125 
z
" id="DejaVuSans-97"/>
     <path d="M 54.890625 33.015625 
L 54.890625 0 
L 45.90625 0 
L 45.90625 32.71875 
Q 45.90625 40.484375 42.875 44.328125 
Q 39.84375 48.1875 33.796875 48.1875 
Q 26.515625 48.1875 22.3125 43.546875 
Q 18.109375 38.921875 18.109375 30.90625 
L 18.109375 0 
L 9.078125 0 
L 9.078125 54.6875 
L 18.109375 54.6875 
L 18.109375 46.1875 
Q 21.34375 51.125 25.703125 53.5625 
Q 30.078125 56 35.796875 56 
Q 45.21875 56 50.046875 50.171875 
Q 54.890625 44.34375 54.890625 33.015625 
z
" id="DejaVuSans-110"/>
     <path d="M 2.984375 54.6875 
L 12.5 54.6875 
L 29.59375 8.796875 
L 46.6875 54.6875 
L 56.203125 54.6875 
L 35.6875 0 
L 23.484375 0 
z
" id="DejaVuSans-118"/>
     <path d="M 9.421875 54.6875 
L 18.40625 54.6875 
L 18.40625 0 
L 9.421875 0 
z
M 9.421875 75.984375 
L 18.40625 75.984375 
L 18.40625 64.59375 
L 9.421875 64.59375 
z
" id="DejaVuSans-105"/>
     <path d="M 4.203125 54.6875 
L 13.1875 54.6875 
L 24.421875 12.015625 
L 35.59375 54.6875 
L 46.1875 54.6875 
L 57.421875 12.015625 
L 68.609375 54.6875 
L 77.59375 54.6875 
L 63.28125 0 
L 52.6875 0 
L 40.921875 44.828125 
L 29.109375 0 
L 18.5 0 
z
" id="DejaVuSans-119"/>
    </defs>
    <g transform="translate(343.719 110.8992)scale(0.144 -0.144)">
     <use xlink:href="#DejaVuSans-117"/>
     <use x="63.378906" xlink:href="#DejaVuSans-112"/>
     <use x="126.855469" xlink:href="#DejaVuSans-100"/>
     <use x="190.332031" xlink:href="#DejaVuSans-97"/>
     <use x="251.611328" xlink:href="#DejaVuSans-116"/>
     <use x="290.820312" xlink:href="#DejaVuSans-101"/>
     <use x="352.34375" xlink:href="#DejaVuSans-32"/>
     <use x="384.130859" xlink:href="#DejaVuSans-115"/>
     <use x="436.230469" xlink:href="#DejaVuSans-116"/>
     <use x="475.439453" xlink:href="#DejaVuSans-101"/>
     <use x="536.962891" xlink:href="#DejaVuSans-112"/>
     <use x="600.439453" xlink:href="#DejaVuSans-32"/>
     <use x="632.226562" xlink:href="#DejaVuSans-97"/>
     <use x="693.505859" xlink:href="#DejaVuSans-110"/>
     <use x="756.884766" xlink:href="#DejaVuSans-100"/>
     <use x="820.361328" xlink:href="#DejaVuSans-32"/>
     <use x="852.148438" xlink:href="#DejaVuSans-108"/>
     <use x="879.931641" xlink:href="#DejaVuSans-114"/>
     <use x="921.044922" xlink:href="#DejaVuSans-32"/>
     <use x="952.832031" xlink:href="#DejaVuSans-111"/>
     <use x="1014.013672" xlink:href="#DejaVuSans-118"/>
     <use x="1073.193359" xlink:href="#DejaVuSans-101"/>
     <use x="1134.716797" xlink:href="#DejaVuSans-114"/>
     <use x="1175.830078" xlink:href="#DejaVuSans-118"/>
     <use x="1235.009766" xlink:href="#DejaVuSans-105"/>
     <use x="1262.792969" xlink:href="#DejaVuSans-101"/>
     <use x="1324.316406" xlink:href="#DejaVuSans-119"/>
    </g>
   </g>
   <g id="Poly3DCollection_3">
    <path clip-path="url(#p6378cc4d4c)" d="M 628.189468 353.523046 
L 633.893821 281.629207 
L 622.817512 270.727455 
L 612.962713 239.448471 
L 600.845502 237.551968 
L 588.562726 237.01251 
L 576.789213 225.424543 
L 564.236536 226.234062 
L 551.624034 227.04744 
L 548.958314 230.550135 
L 546.407756 231.270664 
L 544.340438 219.420016 
L 541.355079 231.322757 
L 539.256719 219.459603 
L 533.364948 381.58996 
z
" style="fill:#ff0000;fill-opacity:0.5;"/>
   </g>
   <g id="Poly3DCollection_4">
    <path clip-path="url(#p6378cc4d4c)" d="M 533.364948 381.58996 
L 539.256719 219.459603 
L 536.586994 222.990849 
L 533.87475 227.913289 
L 531.079198 235.600957 
L 528.653506 232.150512 
L 512.966097 247.587169 
L 487.392718 249.322749 
L 461.557724 256.62436 
L 435.588262 262.576992 
L 409.323472 261.619279 
L 383.313783 278.738042 
L 356.983207 286.179717 
L 277.011054 305.966048 
L 288.837848 453.967031 
z
" style="fill:#0000ff;fill-opacity:0.5;"/>
   </g>
  </g>
 </g>
 <defs>
  <clipPath id="p6378cc4d4c">
   <rect height="489.24" width="751.68" x="69.12" y="77.76"/>
  </clipPath>
 </defs>
</svg>
